<svg width="24" height="25" viewBox="0 0 24 25" fill="none" xmlns="http://www.w3.org/2000/svg">
<path d="M6.67272 13.6067C6.9852 13.6068 7.27747 13.7619 7.45304 14.0204L8.86075 16.0923L10.9318 17.4991C11.1903 17.6747 11.3454 17.9669 11.3454 18.2794C11.3454 18.5919 11.1903 18.8841 10.9318 19.0598L8.86075 20.4656L7.45304 22.5385C7.27747 22.797 6.9852 22.9521 6.67272 22.9521C6.39926 22.9521 6.14119 22.8334 5.96333 22.6306L5.89239 22.5385L4.48468 20.4665L2.41365 19.0598C2.1551 18.8842 2 18.592 2 18.2794C2 17.9669 2.1551 17.6747 2.41365 17.4991L4.48468 16.0914L5.89239 14.0204L5.96333 13.9282C6.14119 13.7254 6.39925 13.6067 6.67272 13.6067ZM14.6639 2.95215C15.0585 2.95227 15.4113 3.19835 15.5483 3.56848L17.1237 7.82755L21.3837 9.40385L21.5163 9.46465C21.8115 9.62934 22 9.94281 22 10.2883C22 10.6337 21.8115 10.9472 21.5163 11.1119L21.3837 11.1727L17.1237 12.749L15.5483 17.009C15.4112 17.3789 15.0584 17.6243 14.6639 17.6244C14.2692 17.6244 13.9156 17.3791 13.7785 17.009L12.2022 12.749L7.94316 11.1727C7.57312 11.0356 7.32774 10.6829 7.32774 10.2883C7.32778 9.89365 7.57311 9.5409 7.94316 9.40385L12.2022 7.82755L13.7785 3.56848L13.8403 3.43582C14.005 3.14063 14.3184 2.95215 14.6639 2.95215Z" fill="#8C8C8C"/>
</svg>
