<svg width="24" height="25" viewBox="0 0 24 25" fill="none" xmlns="http://www.w3.org/2000/svg">
<path fill-rule="evenodd" clip-rule="evenodd" d="M2.58579 5.53793C2.96086 5.16286 3.46957 4.95215 4 4.95215H20C20.5304 4.95215 21.0391 5.16286 21.4142 5.53793C21.7893 5.91301 22 6.42172 22 6.95215V9.95215C22 10.5044 21.5258 10.9322 21.0411 11.197C20.8753 11.2876 20.7218 11.4019 20.5858 11.5379C20.2107 11.913 20 12.4217 20 12.9521C20 13.4826 20.2107 13.9913 20.5858 14.3664C20.7218 14.5024 20.8753 14.6167 21.0411 14.7073C21.5258 14.9721 22 15.3999 22 15.9521V18.9522C22 19.4826 21.7893 19.9913 21.4142 20.3664C21.0391 20.7414 20.5304 20.9522 20 20.9522H4C3.46957 20.9522 2.96086 20.7414 2.58579 20.3664C2.21071 19.9913 2 19.4826 2 18.9522V15.9521C2 15.3999 2.47419 14.9721 2.95887 14.7073C3.12466 14.6167 3.27822 14.5024 3.41421 14.3664C3.78929 13.9913 4 13.4826 4 12.9521C4 12.4217 3.78929 11.913 3.41421 11.5379C3.27822 11.4019 3.12466 11.2876 2.95887 11.197C2.47419 10.9322 2 10.5044 2 9.95215V6.95215C2 6.42172 2.21071 5.91301 2.58579 5.53793ZM15.4 10.7521C15.7314 10.4208 15.7314 9.88352 15.4 9.55215C15.0686 9.22078 14.5314 9.22078 14.2 9.55215L8.6 15.1521C8.26863 15.4835 8.26863 16.0208 8.6 16.3521C8.93137 16.6835 9.46863 16.6835 9.8 16.3521L15.4 10.7521ZM10.864 10.4001C10.864 9.61615 10.232 8.98415 9.448 8.98415C9.07245 8.98415 8.71229 9.13333 8.44674 9.39889C8.18119 9.66444 8.032 10.0246 8.032 10.4001C8.032 11.1841 8.664 11.8161 9.448 11.8161C9.82355 11.8161 10.1837 11.667 10.4493 11.4014C10.7148 11.1359 10.864 10.7757 10.864 10.4001ZM14.552 14.0881C15.336 14.0881 15.968 14.7201 15.968 15.5041C15.968 15.8797 15.8188 16.2399 15.5533 16.5054C15.2877 16.771 14.9275 16.9201 14.552 16.9201C13.768 16.9201 13.136 16.2881 13.136 15.5041C13.136 15.1286 13.2852 14.7684 13.5507 14.5029C13.8163 14.2373 14.1765 14.0881 14.552 14.0881Z" fill="#8C8C8C"/>
</svg>
