<svg width="24" height="25" viewBox="0 0 24 25" fill="none" xmlns="http://www.w3.org/2000/svg">
<path d="M19.3994 12.9526C19.3994 8.86586 16.0867 5.55246 12 5.55225C7.91309 5.55225 4.59961 8.86573 4.59961 12.9526V15.5522H6C7.21485 15.5525 8.19922 16.5375 8.19922 17.7524V20.1519C8.19922 21.3668 7.21485 22.3518 6 22.3521H3.59961C3.04732 22.3521 2.59961 21.9043 2.59961 21.3521V12.9526C2.59961 7.76116 6.80852 3.55225 12 3.55225C17.1913 3.55246 21.3994 7.76129 21.3994 12.9526V21.3521C21.3994 21.9043 20.9517 22.3521 20.3994 22.3521H18C16.861 22.3521 15.9233 21.4867 15.8105 20.3774L15.7998 20.1519V17.7524C15.7998 16.5374 16.785 15.5522 18 15.5522H19.3994V12.9526Z" fill="#8C8C8C"/>
</svg>
