<svg width="24" height="25" viewBox="0 0 24 25" fill="none" xmlns="http://www.w3.org/2000/svg">
<path fill-rule="evenodd" clip-rule="evenodd" d="M22 15.0068C21.9998 16.8016 20.5448 18.2568 18.75 18.2568H15.0527L12.8867 22.4141C12.7117 22.75 12.3621 22.9584 11.9834 22.9521C11.6046 22.9458 11.2623 22.7254 11.0986 22.3838L9.12109 18.2568H5.25C3.45519 18.2568 2.00018 16.8016 2 15.0068V6.20215C2 4.40722 3.45507 2.95215 5.25 2.95215H18.75C20.5449 2.95215 22 4.40722 22 6.20215V15.0068ZM14.5879 7.35298C14.0383 6.81854 13.147 6.81854 12.5975 7.35298L8.68715 11.2887C8.65965 11.3163 8.63741 11.3486 8.62169 11.3837L8.60815 11.4197L8.01388 13.3463C7.97905 13.4594 8.0109 13.582 8.09675 13.6655C8.18262 13.749 8.3087 13.78 8.425 13.7461L10.4061 13.1679C10.4566 13.1532 10.503 13.127 10.5409 13.0914L14.5837 9.29244L14.6376 9.23756C15.1207 8.71765 15.1207 7.92403 14.6376 7.4041L14.5879 7.35298ZM11.2119 14.2246L11.4061 14.1679C11.4566 14.1532 11.503 14.127 11.5409 14.0914L12.7533 12.9521H15.25C15.6642 12.9521 16 13.2879 16 13.7021C16 14.1164 15.6642 14.4521 15.25 14.4521H11.75C11.5389 14.4521 11.3482 14.3649 11.2119 14.2246Z" fill="#8C8C8C"/>
</svg>
