<svg width="24" height="24" viewBox="0 0 24 24" fill="none" xmlns="http://www.w3.org/2000/svg">
<path d="M11.4956 2.71381C11.7021 2.29527 12.299 2.29527 12.5055 2.71381L15.1795 8.13194C15.2616 8.29814 15.4201 8.41334 15.6036 8.43999L21.5828 9.30883C22.0447 9.37595 22.2291 9.94357 21.8949 10.2694L17.5683 14.4868C17.4355 14.6162 17.375 14.8026 17.4063 14.9852L18.4277 20.9403C18.5066 21.4004 18.0237 21.7512 17.6106 21.534L12.2626 18.7224C12.0986 18.6361 11.9026 18.6361 11.7385 18.7224L6.3905 21.534C5.97738 21.7512 5.49453 21.4004 5.57343 20.9403L6.59481 14.9852C6.62614 14.8026 6.56557 14.6162 6.43285 14.4868L2.10622 10.2694C1.77199 9.94357 1.95642 9.37595 2.41832 9.30883L8.39757 8.43999C8.58099 8.41334 8.73955 8.29814 8.82158 8.13194L11.4956 2.71381Z" fill="#8C8C8C"/>
</svg>
