<?xml version="1.0" encoding="utf-8"?>
<!-- Generator: Adobe Illustrator 21.1.0, SVG Export Plug-In . SVG Version: 6.00 Build 0)  -->
<svg version="1.1" id="Layer_1" xmlns="http://www.w3.org/2000/svg" xmlns:xlink="http://www.w3.org/1999/xlink" x="0px" y="0px"
	 viewBox="0 0 60 60" enable-background="new 0 0 60 60" xml:space="preserve">
<g id="dongtot">
	<g id="Tài-khoản-Đồng-Tốt-Copy" transform="translate(1.000000, 1.000000)">
		<g id="Layer_1_1_">
			<g id="Group" transform="translate(0.251297, 0.362140)">
				<path id="Shape" fill="#9C6C18" d="M29.2,0.1c-5.5,0-10.5,1.5-14.8,4.1c-0.1,0-0.1,0.1-0.2,0.1C14,4.3,14,4.4,14,4.4
					c-0.5,0.5-0.5,1.2-0.1,1.7L14,6.1L14,6.2c0.4,0.3,0.9,0.3,1.3,0.1l0.1-0.1c1.1-0.6,2.1-1.2,3.2-1.7c3.3-1.4,6.8-2,10.3-2
					s7.1,0.7,10.3,2s6,3.2,8.5,5.6s4.4,5.2,5.8,8.5c1.4,3.3,2,6.7,2,10.3s-0.7,7.1-2,10.3c-0.5,1.1-1,2.1-1.7,3.2
					c0,0.1-0.1,0.1-0.1,0.2c-0.2,0.4-0.2,1,0.1,1.3L52,44l0.1,0.1c0.5,0.4,1.2,0.4,1.7-0.1l0.1-0.1c0.1-0.1,0.1-0.2,0.1-0.2
					c2.5-4.3,4.1-9.3,4.1-14.7C58.3,13,45.3,0.1,29.2,0.1"/>
				<path id="Shape_1_" fill="#9C6C18" d="M48,47.7c-0.5,0.5-0.5,1.3,0,1.7c0.5,0.5,1.3,0.5,1.8,0c0.5-0.5,0.5-1.3,0-1.7
					C49.3,47.3,48.5,47.3,48,47.7"/>
				<path id="Shape_2_" fill="#9C6C18" d="M10.2,10.2c0.5-0.5,0.5-1.3,0-1.7S9,8,8.5,8.5C8,9,8,9.7,8.5,10.2
					C9,10.7,9.8,10.7,10.2,10.2"/>
				<path id="Shape_3_" fill="#9C6C18" d="M44.3,51.9L44.3,51.9c-0.5-0.4-1-0.4-1.4-0.2c-0.1,0-0.1,0.1-0.2,0.1
					c-1.1,0.6-2.1,1.2-3.2,1.7c-3.3,1.4-6.8,2-10.3,2s-7.1-0.7-10.3-2s-6.1-3.3-8.6-5.7s-4.4-5.2-5.7-8.5c-1.4-3.3-2-6.7-2-10.3
					s0.7-7.1,2-10.3c0.5-1.1,1-2.1,1.7-3.2c0,0,0.1-0.1,0.1-0.2c0.2-0.4,0.2-0.9-0.1-1.3c0-0.1-0.1-0.1-0.2-0.2
					C6,13.7,6,13.7,5.9,13.6c-0.5-0.3-1.2-0.3-1.6,0.2c-0.1,0.1-0.1,0.1-0.1,0.2c0,0.1-0.1,0.1-0.1,0.2C1.5,18.5,0,23.5,0,29
					c0,16,13.1,29,29.2,29c5.5,0,10.5-1.5,14.9-4.1l0.1-0.1c0.1,0,0.1-0.1,0.2-0.1c0.5-0.5,0.5-1.2,0.1-1.7
					C44.4,52,44.4,52,44.3,51.9"/>
				<path id="Shape_4_" fill="#9C6C18" d="M51,28.3c-0.4-11.7-10-21-21.9-21C17.1,7.3,7.3,17,7.3,29s9.8,21.7,21.9,21.7
					c0.6,0,1.2,0,1.8-0.1c6-0.5,11.4-3.4,15.1-7.8c0.5-0.6,1-1.3,1.4-1.8c2.3-3.4,3.6-7.6,3.6-12V28.3"/>
			</g>
			
				<linearGradient id="Shape_12_" gradientUnits="userSpaceOnUse" x1="-81.3542" y1="195.9713" x2="-81.7947" y2="197.1189" gradientTransform="matrix(44.4799 0 0 -44.3003 3666.8462 8728.1494)">
				<stop  offset="0.15" style="stop-color:#FFE182"/>
				<stop  offset="0.1577" style="stop-color:#FDDD7E"/>
				<stop  offset="0.2504" style="stop-color:#EAB14C"/>
				<stop  offset="0.3207" style="stop-color:#DE962D"/>
				<stop  offset="0.36" style="stop-color:#D98C21"/>
				<stop  offset="0.53" style="stop-color:#FFC737"/>
				<stop  offset="0.75" style="stop-color:#FFF1BE"/>
				<stop  offset="0.94" style="stop-color:#FEF6A5"/>
				<stop  offset="1" style="stop-color:#FDFDD1"/>
			</linearGradient>
			
				<linearGradient id="Shape_13_" gradientUnits="userSpaceOnUse" x1="-81.3549" y1="195.9731" x2="-81.7775" y2="197.0742" gradientTransform="matrix(44.4799 0 0 -44.3003 3666.8462 8728.1494)">
				<stop  offset="0" style="stop-color:#9F7623"/>
				<stop  offset="1" style="stop-color:#FFE799"/>
			</linearGradient>
			<path id="Shape_5_" fill="url(#Shape_12_)" stroke="url(#Shape_13_)" stroke-width="0.25" d="M29.1,0c-5.5,0-10.5,1.5-14.8,4.1
				c-0.1,0-0.1,0.1-0.2,0.1c-0.1,0-0.1,0.1-0.2,0.1c-0.5,0.5-0.5,1.2-0.1,1.7L13.9,6L14,6.1c0.4,0.3,0.9,0.3,1.3,0.1l0.1-0.1
				c1.1-0.6,2.1-1.2,3.2-1.7c3.3-1.4,6.8-2,10.3-2s7.1,0.7,10.3,2c3.2,1.4,6,3.2,8.5,5.6s4.4,5.2,5.8,8.5c1.4,3.3,2,6.7,2,10.3
				s-0.7,7.1-2,10.3c-0.5,1.1-1,2.1-1.7,3.2c0,0.1-0.1,0.1-0.1,0.2c-0.2,0.4-0.2,1,0.1,1.3l0.1,0.1l0.1,0.1c0.5,0.4,1.2,0.4,1.7-0.1
				l0.1-0.1c0.1-0.1,0.1-0.2,0.1-0.2C56.4,39.4,58,34.3,58,29C58.3,12.9,45.2,0,29.1,0"/>
			
				<linearGradient id="Shape_14_" gradientUnits="userSpaceOnUse" x1="-42.0262" y1="122.4379" x2="-50.5434" y2="144.6261" gradientTransform="matrix(2.4877 0 0 -2.4779 173.6572 404.2354)">
				<stop  offset="0.15" style="stop-color:#FFE182"/>
				<stop  offset="0.1577" style="stop-color:#FDDD7E"/>
				<stop  offset="0.2504" style="stop-color:#EAB14C"/>
				<stop  offset="0.3207" style="stop-color:#DE962D"/>
				<stop  offset="0.36" style="stop-color:#D98C21"/>
				<stop  offset="0.53" style="stop-color:#FFC737"/>
				<stop  offset="0.75" style="stop-color:#FFF1BE"/>
				<stop  offset="0.94" style="stop-color:#FEF6A5"/>
				<stop  offset="1" style="stop-color:#FDFDD1"/>
			</linearGradient>
			
				<linearGradient id="Shape_15_" gradientUnits="userSpaceOnUse" x1="-49.9397" y1="143.0533" x2="-50.3291" y2="144.0678" gradientTransform="matrix(2.4877 0 0 -2.4779 173.6572 404.2354)">
				<stop  offset="0" style="stop-color:#9F7623"/>
				<stop  offset="1" style="stop-color:#FFE799"/>
			</linearGradient>
			<path id="Shape_6_" fill="url(#Shape_14_)" stroke="url(#Shape_15_)" stroke-width="0.25" d="M48.1,47.6c-0.5,0.5-0.5,1.3,0,1.7
				s1.3,0.5,1.8,0s0.5-1.3,0-1.7S48.5,47.1,48.1,47.6"/>
			
				<linearGradient id="Shape_16_" gradientUnits="userSpaceOnUse" x1="-50.0558" y1="143.3557" x2="-58.573" y2="165.5438" gradientTransform="matrix(2.4877 0 0 -2.4779 134.1464 365.0747)">
				<stop  offset="0.15" style="stop-color:#FFE182"/>
				<stop  offset="0.1577" style="stop-color:#FDDD7E"/>
				<stop  offset="0.2504" style="stop-color:#EAB14C"/>
				<stop  offset="0.3207" style="stop-color:#DE962D"/>
				<stop  offset="0.36" style="stop-color:#D98C21"/>
				<stop  offset="0.53" style="stop-color:#FFC737"/>
				<stop  offset="0.75" style="stop-color:#FFF1BE"/>
				<stop  offset="0.94" style="stop-color:#FEF6A5"/>
				<stop  offset="1" style="stop-color:#FDFDD1"/>
			</linearGradient>
			
				<linearGradient id="Shape_17_" gradientUnits="userSpaceOnUse" x1="-49.9451" y1="143.0676" x2="-50.3346" y2="144.082" gradientTransform="matrix(2.4877 0 0 -2.4779 134.1464 365.0747)">
				<stop  offset="0" style="stop-color:#9F7623"/>
				<stop  offset="1" style="stop-color:#FFE799"/>
			</linearGradient>
			<path id="Shape_7_" fill="url(#Shape_16_)" stroke="url(#Shape_17_)" stroke-width="0.25" d="M10.3,10.2c0.5-0.5,0.5-1.3,0-1.7
				C9.8,8,9,8,8.5,8.5s-0.5,1.3,0,1.7C9,10.7,9.8,10.7,10.3,10.2"/>
			
				<linearGradient id="Shape_18_" gradientUnits="userSpaceOnUse" x1="-81.5022" y1="195.9875" x2="-81.9399" y2="197.1299" gradientTransform="matrix(44.7678 0 0 -44.5104 3677.5513 8783.7021)">
				<stop  offset="0.15" style="stop-color:#FFE182"/>
				<stop  offset="0.1577" style="stop-color:#FDDD7E"/>
				<stop  offset="0.2504" style="stop-color:#EAB14C"/>
				<stop  offset="0.3207" style="stop-color:#DE962D"/>
				<stop  offset="0.36" style="stop-color:#D98C21"/>
				<stop  offset="0.53" style="stop-color:#FFC737"/>
				<stop  offset="0.75" style="stop-color:#FFF1BE"/>
				<stop  offset="0.94" style="stop-color:#FEF6A5"/>
				<stop  offset="1" style="stop-color:#FDFDD1"/>
			</linearGradient>
			
				<linearGradient id="Shape_19_" gradientUnits="userSpaceOnUse" x1="-81.5025" y1="195.9883" x2="-81.9224" y2="197.0842" gradientTransform="matrix(44.7678 0 0 -44.5104 3677.5513 8783.7021)">
				<stop  offset="0" style="stop-color:#9F7623"/>
				<stop  offset="1" style="stop-color:#FFE799"/>
			</linearGradient>
			<path id="Shape_8_" fill="url(#Shape_18_)" stroke="url(#Shape_19_)" stroke-width="0.25" d="M44.3,51.9L44.3,51.9
				c-0.5-0.4-1-0.4-1.4-0.2c-0.1,0-0.1,0.1-0.2,0.1c-1.1,0.6-2.1,1.2-3.2,1.7c-3.3,1.4-6.8,2-10.3,2s-7.1-0.7-10.3-2s-6-3.2-8.5-5.6
				S6,42.6,4.6,39.4c-1.4-3.3-2-6.7-2-10.3s0.7-7.1,2-10.3c0.5-1.1,1-2.1,1.7-3.2c0,0,0.1-0.1,0.1-0.2c0.2-0.4,0.2-0.9-0.1-1.3
				c0-0.1-0.1-0.1-0.2-0.2C6,13.8,6,13.8,5.9,13.7c-0.5-0.3-1.2-0.3-1.6,0.2C4.3,14,4.3,14,4.3,14.1c0,0.1-0.1,0.1-0.1,0.2
				c-2.6,4.3-4.1,9.3-4.1,14.8c0,15.9,13.1,29,29.2,29c5.5,0,10.5-1.5,14.9-4.1l0.1-0.1c0.1,0,0.1-0.1,0.2-0.1
				c0.5-0.5,0.5-1.2,0.1-1.7C44.4,51.9,44.3,51.9,44.3,51.9"/>
			
				<linearGradient id="Shape_20_" gradientUnits="userSpaceOnUse" x1="-81.367" y1="195.8405" x2="-81.8518" y2="197.1091" gradientTransform="matrix(43.7058 0 0 -43.3397 3595.5662 8543.0654)">
				<stop  offset="0.15" style="stop-color:#FFE182"/>
				<stop  offset="0.1577" style="stop-color:#FDDD7E"/>
				<stop  offset="0.2504" style="stop-color:#EAB14C"/>
				<stop  offset="0.3207" style="stop-color:#DE962D"/>
				<stop  offset="0.36" style="stop-color:#D98C21"/>
				<stop  offset="0.53" style="stop-color:#FFC737"/>
				<stop  offset="0.75" style="stop-color:#FFF1BE"/>
				<stop  offset="0.94" style="stop-color:#FEF6A5"/>
				<stop  offset="1" style="stop-color:#FDFDD1"/>
			</linearGradient>
			
				<linearGradient id="Shape_21_" gradientUnits="userSpaceOnUse" x1="-81.4206" y1="195.9808" x2="-81.7801" y2="196.9215" gradientTransform="matrix(43.7058 0 0 -43.3397 3595.5662 8543.0654)">
				<stop  offset="0" style="stop-color:#9F7623"/>
				<stop  offset="1" style="stop-color:#FFE799"/>
			</linearGradient>
			<path id="Shape_9_" fill="url(#Shape_20_)" stroke="url(#Shape_21_)" stroke-width="0.25" d="M51,28.2c-0.4-11.7-10-21-21.9-21
				C17,7.2,7.3,16.9,7.3,28.9S17,50.5,29.1,50.5c0.6,0,1.2,0,1.8-0.1c6-0.5,11.4-3.4,15.1-7.8c0.5-0.6,1-1.3,1.4-1.8
				c2.3-3.4,3.6-7.6,3.6-12V28.2"/>
			<g id="Group_1_" transform="translate(12.682499, 17.491358)">
				<polygon id="Shape_10_" fill="#9C6C18" points="33.2,0.9 33.2,4.6 28.2,4.6 28.2,23.1 23.6,23.1 23.6,4.6 18.5,4.6 18.5,0.9 
									"/>
				<g id="Shape_11_">
					<path fill="#9C6C18" d="M2,13.3H0.2V10H2V0.9h7.5c6.3,0,7.5,4.3,7.5,10.8c0,7.9-1.8,11.5-7.8,11.5H2V13.3L2,13.3z M6.6,10h2.9
						v3.3H6.6v6.5h2c3.2,0,3.8-1.9,3.8-8c0-5.1-0.4-7.7-3.9-7.7h-2V10L6.6,10z"/>
					<g>
						<path fill="#FFFFFF" stroke="#9C6C18" stroke-width="0.25" d="M1.8,12.6H0.1V9.3h1.8V0.2h7.4c6.2,0,7.4,4.3,7.4,10.8
							c0,7.9-1.7,11.5-7.7,11.5H1.8V12.6L1.8,12.6z M6.3,9.3h2.9v3.3H6.3v6.5h2c3.1,0,3.8-1.9,3.8-8c0-5.1-0.4-7.7-3.9-7.7h-2V9.3
							L6.3,9.3z"/>
						<polygon fill="#FFFFFF" stroke="#9C6C18" stroke-width="0.25" points="32.7,0.2 32.7,3.9 27.9,3.9 27.9,22.4 23.3,22.4 
							23.3,3.9 18.4,3.9 18.4,0.2 						"/>
					</g>
				</g>
			</g>
		</g>
	</g>
</g>
</svg>
