<svg width="24" height="24" viewBox="0 0 24 24" fill="none" xmlns="http://www.w3.org/2000/svg">
<path d="M12 2C17.5228 2 22 6.47715 22 12C22 17.5228 17.5228 22 12 22C6.47715 22 2 17.5228 2 12C2 6.47715 6.47715 2 12 2ZM12 6.91211C11.3864 6.91211 10.8887 7.40979 10.8887 8.02344V13.25C10.8887 13.7281 11.1949 14.1524 11.6484 14.3037L15.3984 15.5537L15.5078 15.585C16.0573 15.7082 16.6217 15.3972 16.8037 14.8516C16.9856 14.3057 16.7207 13.7184 16.207 13.4873L16.1016 13.4463L13.1113 12.4492V8.02344C13.1113 7.40979 12.6136 6.91211 12 6.91211Z" fill="#8C8C8C"/>
</svg>
