<svg width="24" height="24" viewBox="0 0 24 24" fill="none" xmlns="http://www.w3.org/2000/svg">
<path fill-rule="evenodd" clip-rule="evenodd" d="M20.958 19V11.05C21.3395 10.6667 21.6339 10.2083 21.8413 9.675C22.0487 9.14167 22.0528 8.55 21.8537 7.9L20.8087 4.5C20.6594 4.05 20.4188 3.6875 20.087 3.4125C19.7553 3.1375 19.3654 3 18.9175 3H5.08247C4.63457 3 4.24059 3.14167 3.90052 3.425C3.56045 3.70833 3.32406 4.06667 3.19135 4.5L2.14625 7.9C1.94719 8.55 1.95133 9.15 2.15869 9.7C2.36605 10.25 2.66051 10.7 3.04205 11.05V19C3.04205 19.55 3.23697 20.0208 3.6268 20.4125C4.01664 20.8042 4.48527 21 5.0327 21H10H14H18.9673C19.5147 21 19.9834 20.8042 20.3732 20.4125C20.763 20.0208 20.958 19.55 20.958 19ZM14 19V15C14 14.4477 13.5523 14 13 14H11C10.4477 14 10 14.4477 10 15V19H14ZM6.06536 9.675C5.84141 9.89167 5.58013 10 5.28154 10C4.80046 10 4.45624 9.80833 4.24888 9.425C4.04152 9.04167 3.98761 8.68333 4.08714 8.35L5.08247 5H7.02336L6.47593 8.85C6.42616 9.18333 6.28931 9.45833 6.06536 9.675ZM9.71075 10C10.0923 10 10.4033 9.87083 10.6439 9.6125C10.8844 9.35417 11.0047 9.05 11.0047 8.7V5H9.06378L8.51635 8.5C8.45 8.9 8.53709 9.25 8.77763 9.55C9.01816 9.85 9.3292 10 9.71075 10ZM15.2099 9.5375C14.9777 9.84583 14.6376 10 14.1897 10C13.8579 10 13.5759 9.87083 13.3437 9.6125C13.1115 9.35417 12.9953 9.05 12.9953 8.7V5H14.9362L15.4836 8.5C15.5334 8.88333 15.4422 9.22917 15.2099 9.5375ZM18.7185 10C19.1995 10 19.5479 9.80833 19.7636 9.425C19.9792 9.04167 20.029 8.68333 19.9129 8.35L18.8678 5H16.9766L17.5241 8.85C17.5738 9.18333 17.7107 9.45833 17.9346 9.675C18.1586 9.89167 18.4199 10 18.7185 10Z" fill="#8C8C8C"/>
</svg>
