<svg width="24" height="24" viewBox="0 0 24 24" fill="none" xmlns="http://www.w3.org/2000/svg">
<rect width="24" height="24" rx="8" fill="url(#paint0_linear_82_105967)"/>
<rect width="24" height="24" rx="8" fill="url(#paint1_linear_82_105967)"/>
<path d="M17.7158 15.6182C17.25 15.6182 16.8135 15.5347 16.4062 15.3677C16.002 15.1978 15.646 14.9619 15.3384 14.6602C15.0337 14.3584 14.7949 14.0068 14.6221 13.6055C14.4521 13.2012 14.3672 12.7676 14.3672 12.3047C14.3672 11.8389 14.4521 11.4067 14.6221 11.0083C14.7949 10.6069 15.0337 10.2568 15.3384 9.95801C15.6431 9.65625 15.9976 9.42188 16.4019 9.25488C16.8091 9.08496 17.2456 9 17.7114 9C18.1831 9 18.6211 9.08496 19.0254 9.25488C19.4297 9.42188 19.7827 9.65625 20.0845 9.95801C20.3892 10.2568 20.625 10.6069 20.792 11.0083C20.9619 11.4097 21.0469 11.8418 21.0469 12.3047C21.0469 12.7705 20.9619 13.2041 20.792 13.6055C20.625 14.0068 20.3892 14.3584 20.0845 14.6602C19.7827 14.9619 19.4297 15.1978 19.0254 15.3677C18.6211 15.5347 18.1846 15.6182 17.7158 15.6182ZM17.7026 14.3042C17.9722 14.3042 18.2227 14.2529 18.4541 14.1504C18.6855 14.0479 18.8877 13.9058 19.0605 13.7241C19.2334 13.5425 19.3682 13.3301 19.4648 13.0869C19.5615 12.8438 19.6099 12.583 19.6099 12.3047C19.6099 12.0205 19.5601 11.7583 19.4604 11.5181C19.3638 11.2749 19.229 11.064 19.0562 10.8853C18.8833 10.7036 18.6812 10.563 18.4497 10.4634C18.2183 10.3638 17.9692 10.314 17.7026 10.314C17.439 10.314 17.1914 10.3638 16.96 10.4634C16.7314 10.563 16.5293 10.7036 16.3535 10.8853C16.1807 11.064 16.0459 11.2749 15.9492 11.5181C15.8525 11.7583 15.8042 12.0205 15.8042 12.3047C15.8042 12.5859 15.8525 12.8481 15.9492 13.0913C16.0459 13.3345 16.1807 13.5469 16.3535 13.7285C16.5264 13.9072 16.7271 14.0479 16.9556 14.1504C17.187 14.2529 17.436 14.3042 17.7026 14.3042Z" fill="url(#paint2_linear_82_105967)"/>
<path d="M10.0864 13.311V12.1377H11.229C11.4282 12.1377 11.604 12.1011 11.7563 12.0278C11.9087 11.9517 12.0259 11.8477 12.1079 11.7158C12.1929 11.5811 12.2354 11.4258 12.2354 11.25C12.2354 10.9746 12.1372 10.7563 11.9409 10.5952C11.7476 10.4341 11.4927 10.3535 11.1763 10.3535H10.0864V9.07031H11.4004C11.8252 9.07031 12.2061 9.14795 12.543 9.30322C12.8828 9.45557 13.1509 9.67969 13.3472 9.97559C13.5464 10.2715 13.646 10.6333 13.646 11.061C13.646 11.4829 13.542 11.8638 13.334 12.2036C13.1289 12.5435 12.8301 12.813 12.4375 13.0122C12.0479 13.2114 11.582 13.311 11.04 13.311H10.0864ZM9.0625 15.5479V9.07031H10.5039V15.5479H9.0625ZM12.6001 15.5479L11.207 13.1045L12.2749 12.252L14.2261 15.5479H12.6001Z" fill="url(#paint3_linear_82_105967)"/>
<path d="M4.90527 13.4385V12.1685H5.9248C6.12988 12.1685 6.30713 12.1289 6.45654 12.0498C6.60889 11.9707 6.72607 11.8623 6.80811 11.7246C6.89014 11.584 6.93115 11.4258 6.93115 11.25C6.93115 10.9746 6.83594 10.7563 6.64551 10.5952C6.45508 10.4341 6.19727 10.3535 5.87207 10.3535H4.90527V9.07031H5.95996C6.45508 9.07031 6.87988 9.1582 7.23438 9.33398C7.5918 9.50977 7.86572 9.75732 8.05615 10.0767C8.24658 10.396 8.3418 10.7725 8.3418 11.2061C8.3418 11.6484 8.24365 12.0381 8.04736 12.375C7.85107 12.709 7.57715 12.9697 7.22559 13.1572C6.87402 13.3447 6.46533 13.4385 5.99951 13.4385H4.90527ZM3.75391 15.5479V9.07031H5.19531V15.5479H3.75391Z" fill="url(#paint4_linear_82_105967)"/>
<defs>
<linearGradient id="paint0_linear_82_105967" x1="12" y1="0" x2="12" y2="24" gradientUnits="userSpaceOnUse">
<stop stop-color="#FF8E97"/>
<stop offset="1" stop-color="#E21115"/>
</linearGradient>
<linearGradient id="paint1_linear_82_105967" x1="0.150055" y1="7.38989e-08" x2="23.0251" y2="24" gradientUnits="userSpaceOnUse">
<stop stop-color="#3E3E3E"/>
<stop offset="1"/>
</linearGradient>
<linearGradient id="paint2_linear_82_105967" x1="12.2051" y1="3.54785" x2="12.2051" y2="21.5479" gradientUnits="userSpaceOnUse">
<stop stop-color="white"/>
<stop offset="0.455" stop-color="#CBCBCB"/>
<stop offset="1" stop-color="#FFEEB4"/>
</linearGradient>
<linearGradient id="paint3_linear_82_105967" x1="12.2046" y1="3.54785" x2="12.2046" y2="21.5479" gradientUnits="userSpaceOnUse">
<stop stop-color="white"/>
<stop offset="0.455" stop-color="#CBCBCB"/>
<stop offset="1" stop-color="#FFEEB4"/>
</linearGradient>
<linearGradient id="paint4_linear_82_105967" x1="12.2046" y1="3.54785" x2="12.2046" y2="21.5479" gradientUnits="userSpaceOnUse">
<stop stop-color="white"/>
<stop offset="0.455" stop-color="#CBCBCB"/>
<stop offset="1" stop-color="#FFEEB4"/>
</linearGradient>
</defs>
</svg>
