<svg width="24" height="24" viewBox="0 0 24 24" fill="none" xmlns="http://www.w3.org/2000/svg">
<path d="M20 6.375C20 5.06332 18.9367 4 17.625 4H10.1875V20H17.625C18.9367 20 20 18.9367 20 17.625V6.375ZM13.6875 12.125L13.79 12.1299C14.2942 12.1812 14.6875 12.6073 14.6875 13.125C14.6875 13.6427 14.2942 14.0688 13.79 14.1201L13.6875 14.125H13.125C12.5727 14.125 12.125 13.6773 12.125 13.125C12.125 12.5727 12.5727 12.125 13.125 12.125H13.6875ZM16.5 8.75L16.6025 8.75488C17.1067 8.80621 17.5 9.23232 17.5 9.75C17.5 10.2677 17.1067 10.6938 16.6025 10.7451L16.5 10.75H13.125C12.5727 10.75 12.125 10.3023 12.125 9.75C12.125 9.19772 12.5727 8.75 13.125 8.75H16.5ZM16.5 5.375L16.6025 5.37988C17.1067 5.43121 17.5 5.85732 17.5 6.375C17.5 6.89268 17.1067 7.31879 16.6025 7.37012L16.5 7.375H13.125C12.5727 7.375 12.125 6.92728 12.125 6.375C12.125 5.82272 12.5727 5.375 13.125 5.375H16.5ZM4 17.625C4 18.9367 5.06332 20 6.375 20H8.1875V4H6.375C5.06332 4 4 5.06332 4 6.375V17.625ZM22 17.625C22 20.0412 20.0412 22 17.625 22H6.375C3.95875 22 2 20.0412 2 17.625V6.375C2 3.95875 3.95875 2 6.375 2H17.625C20.0412 2 22 3.95875 22 6.375V17.625Z" fill="#222222"/>
</svg>
